{
  "accessors": [
    {
      "bufferView": 2,
      "componentType": 5126,
      "count": 944,
      "max": [
        0.99999994039535522,
        0.38644275069236755,
        0.35593411326408386
      ],
      "min": [
        -0.99999994039535522,
        -0.38644275069236755,
        -0.35593411326408386
      ],
      "type": "VEC3"
    },
    {
      "bufferView": 2,
      "byteOffset": 11328,
      "componentType": 5126,
      "count": 944,
      "max": [
        1,
        0.99036520719528198,
        0.99040377140045166
      ],
      "min": [
        -1,
        -0.99036520719528198,
        -0.99040377140045166
      ],
      "type": "VEC3"
    },
    {
      "bufferView": 3,
      "componentType": 5126,
      "count": 944,
      "max": [
        0.99999982118606567,
        1,
        0.99608540534973145,
        1
      ],
      "min": [
        -0.99998116493225098,
        -1,
        -0.99608540534973145,
        -1
      ],
      "type": "VEC4"
    },
    {
      "bufferView": 1,
      "componentType": 5126,
      "count": 944,
      "max": [
        0.97310000658035278,
        1.003600001335144
      ],
      "min": [
        -0.096400000154972076,
        -0.0012999773025512695
      ],
      "type": "VEC2"
    },
    {
      "bufferView": 1,
      "byteOffset": 7552,
      "componentType": 5126,
      "count": 944,
      "max": [
        0.97310000658035278,
        1.003600001335144
      ],
      "min": [
        -0.096400000154972076,
        -0.0012999773025512695
      ],
      "type": "VEC2"
    },
    {
      "bufferView": 1,
      "byteOffset": 15104,
      "componentType": 5126,
      "count": 944,
      "max": [
        0.97310000658035278,
        1.003600001335144
      ],
      "min": [
        -0.096400000154972076,
        -0.0012999773025512695
      ],
      "type": "VEC2"
    },
    {
      "bufferView": 1,
      "byteOffset": 22656,
      "componentType": 5126,
      "count": 944,
      "max": [
        0.97310000658035278,
        1.003600001335144
      ],
      "min": [
        -0.096400000154972076,
        -0.0012999773025512695
      ],
      "type": "VEC2"
    },
    {
      "bufferView": 1,
      "byteOffset": 30208,
      "componentType": 5126,
      "count": 944,
      "max": [
        0.97310000658035278,
        1.003600001335144
      ],
      "min": [
        -0.096400000154972076,
        -0.0012999773025512695
      ],
      "type": "VEC2"
    },
    {
      "bufferView": 0,
      "componentType": 5125,
      "count": 2520,
      "max": [
        943
      ],
      "min": [
        0
      ],
      "type": "SCALAR"
    }
  ],
  "asset": {
    "extras": {
      "author": "hseinbitar (https://sketchfab.com/hseinbitar)",
      "license": "CC-BY-NC-ND-4.0 (http://creativecommons.org/licenses/by-nc-nd/4.0/)",
      "source": "https://sketchfab.com/3d-models/simple-frame-table-with-books-3e9c805ce066418481fc868f88fa94ff",
      "title": "Simple Frame Table with books"
    },
    "generator": "Sketchfab-7.44.0",
    "version": "2.0"
  },
  "bufferViews": [
    {
      "buffer": 0,
      "byteLength": 10080,
      "byteOffset": 0,
      "name": "floatBufferViews",
      "target": 34963
    },
    {
      "buffer": 0,
      "byteLength": 37760,
      "byteOffset": 10080,
      "byteStride": 8,
      "name": "floatBufferViews",
      "target": 34962
    },
    {
      "buffer": 0,
      "byteLength": 22656,
      "byteOffset": 47840,
      "byteStride": 12,
      "name": "floatBufferViews",
      "target": 34962
    },
    {
      "buffer": 0,
      "byteLength": 15104,
      "byteOffset": 70496,
      "byteStride": 16,
      "name": "floatBufferViews",
      "target": 34962
    }
  ],
  "buffers": [
    {
      "byteLength": 85600,
      "uri": "scene.bin"
    }
  ],
  "images": [
    {
      "uri": "textures/wire_225088199_baseColor.png"
    },
    {
      "uri": "textures/wire_225088199_metallicRoughness.png"
    },
    {
      "uri": "textures/wire_225088199_normal.png"
    }
  ],
  "materials": [
    {
      "doubleSided": false,
      "emissiveFactor": [
        0,
        0,
        0
      ],
      "name": "wire_225088199",
      "normalTexture": {
        "index": 2,
        "scale": 1,
        "texCoord": 0
      },
      "occlusionTexture": {
        "index": 1,
        "strength": 1,
        "texCoord": 0
      },
      "pbrMetallicRoughness": {
        "baseColorFactor": [
          1,
          1,
          1,
          1
        ],
        "baseColorTexture": {
          "index": 0,
          "texCoord": 0
        },
        "metallicFactor": 1,
        "metallicRoughnessTexture": {
          "index": 1,
          "texCoord": 0
        },
        "roughnessFactor": 1
      }
    }
  ],
  "meshes": [
    {
      "primitives": [
        {
          "attributes": {
            "NORMAL": 1,
            "POSITION": 0,
            "TANGENT": 2,
            "TEXCOORD_0": 3,
            "TEXCOORD_1": 4,
            "TEXCOORD_2": 5,
            "TEXCOORD_3": 6,
            "TEXCOORD_4": 7
          },
          "indices": 8,
          "material": 0,
          "mode": 4
        }
      ]
    }
  ],
  "nodes": [
    {
      "children": [
        1
      ],
      "name": "RootNode (gltf orientation matrix)",
      "rotation": [
        -0.70710678118654746,
        -0,
        -0,
        0.70710678118654757
      ]
    },
    {
      "children": [
        2
      ],
      "name": "RootNode (model correction matrix)"
    },
    {
      "children": [
        3
      ],
      "name": "root"
    },
    {
      "children": [
        4
      ],
      "matrix": [
        1,
        0,
        0,
        0,
        0,
        2.2204460492503131e-16,
        1,
        0,
        0,
        -1,
        2.2204460492503131e-16,
        0,
        0,
        0,
        0,
        1
      ],
      "name": "GLTF_SceneRootNode"
    },
    {
      "children": [
        5
      ],
      "matrix": [
        49.166400909423828,
        0,
        0,
        0,
        0,
        49.166400909423828,
        0,
        0,
        0,
        0,
        49.166400909423828,
        0,
        0,
        19,
        0,
        1
      ],
      "name": "try%20gltf.obj_0"
    },
    {
      "children": [
        6
      ],
      "name": "g Box002_1"
    },
    {
      "children": [
        7
      ],
      "name": "Box002_2"
    },
    {
      "mesh": 0,
      "name": ""
    }
  ],
  "samplers": [
    {
      "magFilter": 9729,
      "minFilter": 9987,
      "wrapS": 10497,
      "wrapT": 10497
    }
  ],
  "scene": 0,
  "scenes": [
    {
      "name": "OSG_Scene",
      "nodes": [
        0
      ]
    }
  ],
  "textures": [
    {
      "sampler": 0,
      "source": 0
    },
    {
      "sampler": 0,
      "source": 1
    },
    {
      "sampler": 0,
      "source": 2
    }
  ]
}

